HIERARCHY
ROOT hip
{
	OFFSET 0.000000 0.000000 0.000000
	CHANNELS 6 Xposition Yposition Zposition Xrotation Zrotation Yrotation 
	JOINT abdomen
	{
		OFFSET 0.000000 3.422050 0.000000
		CHANNELS 3 Xrotation Zrotation Yrotation 
		JOINT chest
		{
			OFFSET 0.000000 8.486693 -0.684411
			CHANNELS 3 Xrotation Zrotation Yrotation 
			JOINT neck
			{
				OFFSET 0.000000 10.266162 -0.273764
				CHANNELS 3 Xrotation Zrotation Yrotation 
				JOINT head
				{
					OFFSET 0.000000 3.148285 0.000000
					CHANNELS 3 Xrotation Zrotation Yrotation 
					End Site
					{
						OFFSET 0.000000 3.148289 0.000000
					}
				}
			}
			JOINT lCollar
			{
				OFFSET 3.422053 6.707223 -0.821293
				CHANNELS 3 Yrotation Zrotation Xrotation 
				JOINT lShldr
				{
					OFFSET 3.285171 0.000000 0.000000
					CHANNELS 3 Zrotation Yrotation Xrotation 
					JOINT lForeArm
					{
						OFFSET 10.129278 0.000000 0.000000
						CHANNELS 3 Yrotation Zrotation Xrotation 
						JOINT lHand
						{
							OFFSET 8.486692 0.000000 0.000000
							CHANNELS 3 Zrotation Yrotation Xrotation 
							End Site
							{
								OFFSET 4.106464 0.000000 0.000000
							}
						}
					}
				}
			}
			JOINT rCollar
			{
				OFFSET -3.558935 6.707223 -0.821293
				CHANNELS 3 Yrotation Zrotation Xrotation 
				JOINT rShldr
				{
					OFFSET -3.148289 0.000000 0.000000
					CHANNELS 3 Zrotation Yrotation Xrotation 
					JOINT rForeArm
					{
						OFFSET -10.266159 0.000000 0.000000
						CHANNELS 3 Yrotation Zrotation Xrotation 
						JOINT rHand
						{
							OFFSET -8.349810 0.000000 0.000000
							CHANNELS 3 Zrotation Yrotation Xrotation 
							End Site
							{
								OFFSET -4.106464 0.000000 0.000000
							}
						}
					}
				}
			}
		}
	}
	JOINT lThigh
	{
		OFFSET 5.338403 -1.642589 1.368821
		CHANNELS 3 Xrotation Zrotation Yrotation 
		JOINT lShin
		{
			OFFSET -2.053232 -20.121670 0.000000
			CHANNELS 3 Xrotation Zrotation Yrotation 
			JOINT lFoot
			{
				OFFSET 0.000000 -19.300380 -1.231939
				CHANNELS 3 Xrotation Yrotation Zrotation 
				End Site
				{
					OFFSET 0.000000 -2.463878 4.653993
				}
			}
		}
	}
	JOINT rThigh
	{
		OFFSET -5.338403 -1.642589 1.368821
		CHANNELS 3 Xrotation Zrotation Yrotation 
		JOINT rShin
		{
			OFFSET 2.053232 -20.121670 0.000000
			CHANNELS 3 Xrotation Zrotation Yrotation 
			JOINT rFoot
			{
				OFFSET 0.000000 -19.300380 -1.231939
				CHANNELS 3 Xrotation Yrotation Zrotation 
				End Site
				{
					OFFSET 0.000000 -2.463878 4.653993
				}
			}
		}
	}
}
MOTION
Frames: 18
Frame Time: 0.099947
0.000000 -0.004688 0.000000 -89.002243 0.000000 0.000000 0.000000 -0.049832 0.000000 0.000000 0.000000 0.000000 16.997015 0.000000 0.000000 -7.866943 -0.031706 24.503363 0.000000 0.000000 0.000000 -13.425964 -0.001273 -60.003418 -22.360186 4.998872 -20.002934 14.998176 0.000000 0.000000 29.998716 0.000000 0.000000 -47.000240 -14.002350 -60.001888 131.998062 -5.001378 -20.000370 0.000000 0.000000 0.000000 0.000000 -11.003080 0.000000 0.000000 0.000000 -14.702466 20.996786 0.000000 0.000000 -5.001493 1.997036 -0.001455 0.000000 0.000000 14.704813 49.620285 0.029044 0.177460 
0.000000 -0.004688 0.000000 -89.002243 0.000000 0.000000 0.000000 -0.048815 0.000000 0.000000 0.000000 0.000000 16.997015 0.000000 0.000000 -8.003782 -0.002032 24.998741 0.000000 0.000000 0.000000 -14.000161 -0.001228 -60.003410 -22.001534 4.998889 -20.002956 14.998176 0.000000 0.000000 29.998716 0.000000 0.000000 -47.000240 -14.002350 -60.001888 131.998062 -5.001378 -20.000370 0.000000 0.000000 0.000000 0.000000 -11.003080 0.000000 0.000000 0.000000 -15.001697 20.996786 0.000000 0.000000 -5.001493 1.997036 -0.001455 0.000000 0.000000 14.998176 49.997520 0.000000 0.000000 
0.000000 -0.004688 0.000000 -89.002243 0.000000 0.000000 0.000000 -0.047798 0.000000 0.000000 0.000000 0.000000 16.997015 0.000000 0.000000 -7.858195 -0.033560 24.471720 0.000000 0.000000 0.000000 -13.389287 -0.001276 -60.003410 -22.375134 4.998872 -20.002934 14.998176 0.000000 0.000000 29.998716 0.000000 0.000000 -47.000240 -14.002350 -60.001888 131.998062 -5.001378 -20.000370 0.000000 0.000000 0.000000 0.000000 -11.003080 0.000000 0.000000 0.000000 -14.689999 20.996786 0.000000 0.000000 -5.001493 1.997036 -0.001455 0.000000 0.000000 14.686551 49.596191 0.030859 0.188798 
0.000000 -0.004688 0.000000 -89.002243 0.000000 0.000000 0.000000 -0.046781 0.000000 0.000000 0.000000 0.000000 16.997015 0.000000 0.000000 -7.712173 -0.063779 23.944073 0.000000 0.000000 0.000000 -12.777624 -0.001324 -60.003426 -22.748920 4.998854 -20.002911 14.998176 0.000000 0.000000 29.998716 0.000000 0.000000 -47.000240 -14.002350 -60.001888 131.998062 -5.001378 -20.000370 0.000000 0.000000 0.000000 0.000000 -11.003080 0.000000 0.000000 0.000000 -14.378189 20.996786 0.000000 0.000000 -5.001493 1.997036 -0.001455 0.000000 0.000000 14.374820 49.194485 0.060415 0.377937 
0.000000 -0.004688 0.000000 -89.002243 0.000000 0.000000 0.000000 -0.045764 0.000000 0.000000 0.000000 0.000000 16.997015 0.000000 0.000000 -7.565732 -0.092679 23.415831 0.000000 0.000000 0.000000 -12.165195 -0.001373 -60.003426 -23.122877 4.998836 -20.002886 14.998176 0.000000 0.000000 29.998716 0.000000 0.000000 -47.000240 -14.002350 -60.001888 131.998062 -5.001378 -20.000370 0.000000 0.000000 0.000000 0.000000 -11.003080 0.000000 0.000000 0.000000 -14.066285 20.996786 0.000000 0.000000 -5.001493 1.997036 -0.001455 0.000000 0.000000 14.062988 48.792431 0.088662 0.567402 
0.000000 -0.004688 0.000000 -89.002243 0.000000 0.000000 0.000000 -0.044747 0.000000 0.000000 0.000000 0.000000 16.997015 0.000000 0.000000 -7.418889 -0.120254 22.887003 0.000000 0.000000 0.000000 -11.552039 -0.001420 -60.003426 -23.497007 4.998818 -20.002865 14.998176 0.000000 0.000000 29.998716 0.000000 0.000000 -47.000240 -14.002350 -60.001888 131.998062 -5.001378 -20.000370 0.000000 0.000000 0.000000 0.000000 -11.003080 0.000000 0.000000 0.000000 -13.754283 20.996786 0.000000 0.000000 -5.001493 1.997036 -0.001455 0.000000 0.000000 13.751057 48.390030 0.115595 0.757180 
0.000000 -0.004688 0.000000 -89.002243 0.000000 0.000000 0.000000 -0.043730 0.000000 0.000000 0.000000 0.000000 16.997015 0.000000 0.000000 -7.271667 -0.146495 22.357632 0.000000 0.000000 0.000000 -10.938192 -0.001470 -60.003437 -23.871298 4.998800 -20.002842 14.998176 0.000000 0.000000 29.998716 0.000000 0.000000 -47.000240 -14.002350 -60.001888 131.998062 -5.001378 -20.000370 0.000000 0.000000 0.000000 0.000000 -11.003080 0.000000 0.000000 0.000000 -13.442183 20.996786 0.000000 0.000000 -5.001493 1.997036 -0.001455 0.000000 0.000000 13.439033 47.987309 0.141209 0.947255 
0.000000 -0.004688 0.000000 -89.002243 0.000000 0.000000 0.000000 -0.042713 0.000000 0.000000 0.000000 0.000000 16.997015 0.000000 0.000000 -7.124081 -0.171396 21.827740 0.000000 0.000000 0.000000 -10.323686 -0.001518 -60.003445 -24.245735 4.998781 -20.002817 14.998176 0.000000 0.000000 29.998716 0.000000 0.000000 -47.000240 -14.002350 -60.001888 131.998062 -5.001378 -20.000370 0.000000 0.000000 0.000000 0.000000 -11.003080 0.000000 0.000000 0.000000 -13.129999 20.996786 0.000000 0.000000 -5.001493 1.997036 -0.001455 0.000000 0.000000 13.126919 47.584267 0.165499 1.137612 
0.000000 -0.004688 0.000000 -89.002243 0.000000 0.000000 0.000000 -0.041696 0.000000 0.000000 0.000000 0.000000 16.997015 0.000000 0.000000 -6.976149 -0.194949 21.297348 0.000000 0.000000 0.000000 -9.708555 -0.001566 -60.003460 -24.620321 4.998762 -20.002794 14.998176 0.000000 0.000000 29.998716 0.000000 0.000000 -47.000240 -14.002350 -60.001888 131.998062 -5.001378 -20.000370 0.000000 0.000000 0.000000 0.000000 -11.003080 0.000000 0.000000 0.000000 -12.817734 20.996786 0.000000 0.000000 -5.001493 1.997036 -0.001455 0.000000 0.000000 12.814726 47.180939 0.188462 1.328237 
0.000000 -0.004688 0.000000 -89.002243 0.000000 0.000000 0.000000 -0.040679 0.000000 0.000000 0.000000 0.000000 16.997015 0.000000 0.000000 -6.827892 -0.217148 20.766489 0.000000 0.000000 0.000000 -9.092832 -0.001614 -60.003460 -24.995050 4.998744 -20.002775 14.998176 0.000000 0.000000 29.998716 0.000000 0.000000 -47.000240 -14.002350 -60.001888 131.998062 -5.001378 -20.000370 0.000000 0.000000 0.000000 0.000000 -11.003080 0.000000 0.000000 0.000000 -12.505385 20.996786 0.000000 0.000000 -5.001493 1.997036 -0.001455 0.000000 0.000000 12.502451 46.777340 0.210092 1.519116 
0.000000 -0.004688 0.000000 -89.002243 0.000000 0.000000 0.000000 -0.039662 0.000000 0.000000 0.000000 0.000000 16.997015 0.000000 0.000000 -6.679329 -0.237987 20.235201 0.000000 0.000000 0.000000 -8.476554 -0.001663 -60.003479 -25.369892 4.998723 -20.002747 14.998176 0.000000 0.000000 29.998716 0.000000 0.000000 -47.000240 -14.002350 -60.001888 131.998062 -5.001378 -20.000370 0.000000 0.000000 0.000000 0.000000 -11.003080 0.000000 0.000000 0.000000 -12.192961 20.996786 0.000000 0.000000 -5.001493 1.997036 -0.001455 0.000000 0.000000 12.190100 46.373463 0.230387 1.710233 
0.000000 -0.004688 0.000000 -89.002243 0.000000 0.000000 0.000000 -0.038645 0.000000 0.000000 0.000000 0.000000 16.997015 0.000000 0.000000 -6.530478 -0.257460 19.703491 0.000000 0.000000 0.000000 -7.859753 -0.001710 -60.003471 -25.744865 4.998705 -20.002724 14.998176 0.000000 0.000000 29.998716 0.000000 0.000000 -47.000240 -14.002350 -60.001888 131.998062 -5.001378 -20.000370 0.000000 0.000000 0.000000 0.000000 -11.003080 0.000000 0.000000 0.000000 -11.880468 20.996786 0.000000 0.000000 -5.001493 1.997036 -0.001455 0.000000 0.000000 11.877681 45.969357 0.249342 1.901573 
0.000000 -0.004688 0.000000 -89.002243 0.000000 0.000000 0.000000 -0.037628 0.000000 0.000000 0.000000 0.000000 16.997015 0.000000 0.000000 -6.381359 -0.275562 19.171396 0.000000 0.000000 0.000000 -7.242471 -0.001759 -60.003498 -26.119953 4.998686 -20.002703 14.998176 0.000000 0.000000 29.998716 0.000000 0.000000 -47.000240 -14.002350 -60.001888 131.998062 -5.001378 -20.000370 0.000000 0.000000 0.000000 0.000000 -11.003080 0.000000 0.000000 0.000000 -11.567911 20.996786 0.000000 0.000000 -5.001493 1.997036 -0.001455 0.000000 0.000000 11.565197 45.565010 0.266954 2.093121 
0.000000 -0.004688 0.000000 -89.002243 0.000000 0.000000 0.000000 -0.036611 0.000000 0.000000 0.000000 0.000000 16.997015 0.000000 0.000000 -6.231990 -0.292288 18.638950 0.000000 0.000000 0.000000 -6.624734 -0.001807 -60.003498 -26.495140 4.998666 -20.002682 14.998176 0.000000 0.000000 29.998716 0.000000 0.000000 -47.000240 -14.002350 -60.001888 131.998062 -5.001378 -20.000370 0.000000 0.000000 0.000000 0.000000 -11.003080 0.000000 0.000000 0.000000 -11.255295 20.996786 0.000000 0.000000 -5.001493 1.997036 -0.001455 0.000000 0.000000 11.252653 45.160458 0.283219 2.284862 
0.000000 -0.004688 0.000000 -89.002243 0.000000 0.000000 0.000000 -0.035594 0.000000 0.000000 0.000000 0.000000 16.997015 0.000000 0.000000 -6.082393 -0.307632 18.106178 0.000000 0.000000 0.000000 -6.006586 -0.001855 -60.003521 -26.870428 4.998647 -20.002661 14.998176 0.000000 0.000000 29.998716 0.000000 0.000000 -47.000240 -14.002350 -60.001888 131.998062 -5.001378 -20.000370 0.000000 0.000000 0.000000 0.000000 -11.003080 0.000000 0.000000 0.000000 -10.942620 20.996786 0.000000 0.000000 -5.001493 1.997036 -0.001455 0.000000 0.000000 10.940052 44.755707 0.298135 2.476781 
0.000000 -0.004688 0.000000 -89.002243 0.000000 0.000000 0.000000 -0.034577 0.000000 0.000000 0.000000 0.000000 16.997015 0.000000 0.000000 -5.932586 -0.321592 17.573101 0.000000 0.000000 0.000000 -5.388056 -0.001903 -60.003521 -27.245802 4.998627 -20.002636 14.998176 0.000000 0.000000 29.998716 0.000000 0.000000 -47.000240 -14.002350 -60.001888 131.998062 -5.001378 -20.000370 0.000000 0.000000 0.000000 0.000000 -11.003080 0.000000 0.000000 0.000000 -10.629895 20.996786 0.000000 0.000000 -5.001493 1.997036 -0.001455 0.000000 0.000000 10.627401 44.350784 0.311700 2.668862 
0.000000 -0.004688 0.000000 -89.002243 0.000000 0.000000 0.000000 -0.033560 0.000000 0.000000 0.000000 0.000000 16.997015 0.000000 0.000000 -5.782588 -0.334162 17.039751 0.000000 0.000000 0.000000 -4.769183 -0.001951 -60.003529 -27.621258 4.998608 -20.002615 14.998176 0.000000 0.000000 29.998716 0.000000 0.000000 -47.000240 -14.002350 -60.001888 131.998062 -5.001378 -20.000370 0.000000 0.000000 0.000000 0.000000 -11.003080 0.000000 0.000000 0.000000 -10.317122 20.996786 0.000000 0.000000 -5.001493 1.997036 -0.001455 0.000000 0.000000 10.314702 43.945702 0.323909 2.861091 
0.000000 -0.004688 0.000000 -89.002243 0.000000 0.000000 0.000000 -0.032543 0.000000 0.000000 0.000000 0.000000 16.997015 0.000000 0.000000 -5.632421 -0.345340 16.506163 0.000000 0.000000 0.000000 -4.150004 -0.001998 -60.003555 -27.996788 4.998588 -20.002596 14.998176 0.000000 0.000000 29.998716 0.000000 0.000000 -47.000240 -14.002350 -60.001888 131.998062 -5.001378 -20.000370 0.000000 0.000000 0.000000 0.000000 -11.003080 0.000000 0.000000 0.000000 -10.004308 20.996786 0.000000 0.000000 -5.001493 1.997036 -0.001455 0.000000 0.000000 10.001961 43.540474 0.334762 3.053450 
